<?xml version="1.0" encoding="UTF-8"?>
<svg id="Layer_1" data-name="Layer 1" xmlns="http://www.w3.org/2000/svg" version="1.1" viewBox="0 0 48 48">
  <defs>
    <style>
      .cls-1 {
        fill: #602f00;
        stroke-width: 0px;
      }
    </style>
  </defs>
  <path class="cls-1" d="M24.1,10.7c1.1,0,2.1-.9,2.1-2.1s-.9-2.1-2.1-2.1-2.1.9-2.1,2.1.9,2.1,2.1,2.1Z"/>
  <path class="cls-1" d="M25.5,31.8h-2.8c-1.1,0-2,.9-2,2v1.7h6.9v-1.7c0-1.1-.9-2-2-2h-.1Z"/>
  <path class="cls-1" d="M41.7,23.5h-3.7v-14.8c0-.7-.5-1.2-1.2-1.2h-5.6l.8-.5c.4-.2.5-.8.3-1.2l-1.7-3c-.2-.4-.8-.5-1.2-.3l-1.2.7c-.5-.4-1-.7-1.6-.9V.9c0-.5-.4-.9-.9-.9h-3.4c-.5,0-.9.4-.9.9v1.4c-.6.2-1.1.6-1.6.9l-1.2-.7c-.4-.2-.9,0-1.2.3h0l-1.7,3c-.2.4,0,.9.3,1.2l.8.5h-5.6c-.7,0-1.2.5-1.2,1.2v14.8h-3.7v24.5h35.3v-24.5h.1ZM24.1,4.4c2.3,0,4.2,1.9,4.2,4.2s-1.9,4.2-4.2,4.2-4.2-1.9-4.2-4.2,1.9-4.2,4.2-4.2ZM30.5,37.1c0,.8-.7,1.5-1.5,1.5h-.8v2.2c0,.8-.7,1.5-1.5,1.5s-1.5-.7-1.5-1.5v-2.2h-2.3v2.2c0,.8-.7,1.5-1.5,1.5s-1.5-.7-1.5-1.5v-2.2h-.8c-.8,0-1.5-.7-1.5-1.5v-3.2c0-2.7,2.2-5,4.9-5v-5.3h-10v-13.8h4.4l-.9.5c-.4.2-.5.8-.3,1.2l1.7,3c.2.4.8.5,1.2.3l1.2-.7c.5.4,1,.7,1.6.9v1.4c0,.5.4.9.9.9h3.4c.3,0,.7-.2.8-.5v-1.7c.6-.2,1.1-.6,1.6-.9l1.2.7c.4.2.9,0,1.2-.3l1.7-3c.2-.4,0-.9-.3-1.2l-.9-.5h4.4v13.8h-10v5.3c2.7,0,4.9,2.3,4.9,5v3.2h.2Z"/>
</svg>